<svg width="35" height="25" viewBox="0 0 35 25" fill="none" xmlns="http://www.w3.org/2000/svg">
<path d="M26.2014 15.3054C23.7901 15.3054 21.8284 17.2671 21.8284 19.6784C21.8284 22.0897 23.7901 24.0514 26.2014 24.0514C28.6132 24.0514 30.5744 22.0897 30.5744 19.6784C30.5744 17.2671 28.6128 15.3054 26.2014 15.3054ZM26.2014 21.8649C24.9956 21.8649 24.0149 20.8842 24.0149 19.6784C24.0149 18.4726 24.9956 17.4919 26.2014 17.4919C27.4073 17.4919 28.3879 18.4726 28.3879 19.6784C28.3879 20.8843 27.4073 21.8649 26.2014 21.8649Z" fill="white"/>
<path d="M11.2604 15.3054C8.84911 15.3054 6.88744 17.2671 6.88744 19.6784C6.88744 22.0897 8.84911 24.0514 11.2604 24.0514C13.6718 24.0514 15.6334 22.0897 15.6334 19.6784C15.6334 17.2671 13.6718 15.3054 11.2604 15.3054ZM11.2604 21.8649C10.0546 21.8649 9.07394 20.8842 9.07394 19.6784C9.07394 18.4726 10.0546 17.4919 11.2604 17.4919C12.4659 17.4919 13.4469 18.4726 13.4469 19.6784C13.4469 20.8843 12.4663 21.8649 11.2604 21.8649Z" fill="white"/>
<path d="M29.1463 2.78853C28.9604 2.41938 28.5825 2.1865 28.1693 2.1865H22.4115V4.37299H27.4951L30.472 10.294L32.426 9.3115L29.1463 2.78853Z" fill="white"/>
<path d="M22.9217 18.6216H14.6495V20.8081H22.9217V18.6216Z" fill="white"/>
<path d="M7.98066 18.6216H4.19079C3.58693 18.6216 3.09758 19.1111 3.09758 19.7149C3.09758 20.3187 3.587 20.8081 4.19079 20.8081H7.98073C8.58459 20.8081 9.07394 20.3187 9.07394 19.7149C9.07394 19.111 8.58452 18.6216 7.98066 18.6216Z" fill="white"/>
<path d="M34.4627 11.9382L32.3124 9.16867C32.1058 8.9019 31.7869 8.74592 31.4491 8.74592H23.5048V1.09321C23.5048 0.489351 23.0154 0 22.4116 0H4.19079C3.58693 0 3.09758 0.489419 3.09758 1.09321C3.09758 1.69701 3.587 2.18643 4.19079 2.18643H21.3183V9.83913C21.3183 10.443 21.8077 10.9323 22.4115 10.9323H30.9137L32.5058 12.9833V18.6215H29.4811C28.8773 18.6215 28.3879 19.1109 28.3879 19.7147C28.3879 20.3186 28.8774 20.8079 29.4811 20.8079H33.599C34.2029 20.8079 34.6922 20.3185 34.6923 19.7147V12.6088C34.6923 12.3661 34.6114 12.1299 34.4627 11.9382Z" fill="white"/>
<path d="M7.90782 13.0825H2.87885C2.27499 13.0825 1.78564 13.5719 1.78564 14.1757C1.78564 14.7796 2.27506 15.269 2.87885 15.269H7.90775C8.51161 15.269 9.00096 14.7795 9.00096 14.1757C9.00103 13.5719 8.51161 13.0825 7.90782 13.0825Z" fill="white"/>
<path d="M10.4223 8.78238H1.09321C0.489419 8.78238 0 9.2718 0 9.87566C0 10.4795 0.489419 10.9689 1.09321 10.9689H10.4223C11.0261 10.9689 11.5155 10.4795 11.5155 9.87566C11.5155 9.27187 11.0261 8.78238 10.4223 8.78238Z" fill="white"/>
<path d="M12.2079 4.48229H2.87885C2.27499 4.48229 1.78564 4.97171 1.78564 5.57551C1.78564 6.17937 2.27506 6.66872 2.87885 6.66872H12.2079C12.8118 6.66872 13.3011 6.1793 13.3011 5.57551C13.3012 4.97171 12.8118 4.48229 12.2079 4.48229Z" fill="white"/>
</svg>
