<svg width="35" height="35" viewBox="0 0 35 35" fill="none" xmlns="http://www.w3.org/2000/svg">
<path d="M34.3946 0.297676C34.1814 0.0842999 33.884 -0.0234721 33.5838 0.00430069C33.4585 0.0156808 30.467 0.300183 26.3644 1.67724C13.0125 5.78938 4.1759 18.736 0.0668119 28.102C-0.191835 28.7204 0.330743 29.5483 1.11292 29.4799L5.65151 29.0383L5.21002 33.5766C5.16165 34.2289 5.79499 34.916 6.588 34.6226C22.8928 27.1933 32.8381 15.8221 34.6881 1.10844C34.7155 0.808019 34.608 0.510917 34.3946 0.297676V0.297676ZM21.2567 22.6343C19.4551 24.2739 17.6791 25.6833 16.0375 26.8706V9.56729C17.7583 8.15698 19.5418 7.01389 21.2567 6.09102V22.6343ZM11.3397 29.9453C9.72632 30.8932 8.36446 31.5851 7.40127 32.0417L7.79392 28.0059C7.85218 27.4808 7.36638 26.8164 6.68413 26.8962L2.64956 27.2886C4.01257 24.3968 7.68349 17.6637 14.0052 11.3976V28.2784C13.031 28.9243 12.1322 29.4797 11.3397 29.9453V29.9453ZM31.0693 7.737C29.8759 11.2737 27.5584 16.3797 23.289 20.6904V5.07866C26.0701 3.73548 30.3191 2.53149 32.4799 2.21224C32.2728 3.42571 31.8571 5.40232 31.0693 7.737Z" fill="white"/>
</svg>
