<svg width="35" height="35" viewBox="0 0 35 35" fill="none" xmlns="http://www.w3.org/2000/svg">
<path d="M33.6759 12.2643H26.4023C26.403 12.2579 26.4041 12.2516 26.4048 12.2452C27.2511 11.517 27.9276 10.6523 28.419 9.66973C28.5766 9.35465 28.5598 8.98049 28.3746 8.68086C28.1893 8.38117 27.8622 8.19876 27.5099 8.19876H25.941C25.6006 7.23578 25.1037 6.34652 24.4571 5.54358C24.54 4.43132 24.4069 3.34306 24.0599 2.30215C23.9485 1.96797 23.6719 1.7153 23.3292 1.63439C22.9862 1.55342 22.6261 1.65587 22.3769 1.90488L21.2653 3.01653C20.3468 2.57745 19.3689 2.30032 18.3453 2.18927C17.5783 1.28571 16.6942 0.570518 15.7679 0.107322C15.4528 -0.0502165 15.0788 -0.0334124 14.779 0.151771C14.4794 0.336955 14.297 0.664093 14.297 1.01637V2.65301C13.3341 2.99336 12.4447 3.49036 11.6418 4.13698C10.5297 4.05411 9.44125 4.18726 8.40055 4.53425C8.06637 4.64564 7.8137 4.92217 7.73279 5.26496C7.65189 5.60775 7.7542 5.96809 8.00328 6.2171L9.11473 7.32861C8.67538 8.24775 8.39811 9.22632 8.28726 10.2507C7.60629 10.8367 7.03549 11.5111 6.58239 12.2643H1.01638C0.455065 12.2643 0 12.7194 0 13.2807V17.3462C0 17.9075 0.455065 18.3626 1.01638 18.3626H2.10051V33.676C2.10051 34.2373 2.55558 34.6924 3.11689 34.6924H7.18239C7.7437 34.6924 8.19877 34.2373 8.19877 33.676V30.2309L17.3462 26.5719L26.4935 30.2309V33.6759C26.4935 34.2372 26.9486 34.6923 27.5099 34.6923H31.5754C32.1367 34.6923 32.5918 34.2372 32.5918 33.6759V18.3625H33.6759C34.2372 18.3625 34.6923 17.9075 34.6923 17.3461V13.2806C34.6923 12.7193 34.2372 12.2643 33.6759 12.2643V12.2643ZM9.88602 11.5688C10.1178 11.3893 10.2609 11.1185 10.2783 10.8258C10.3462 9.69128 10.6698 8.62537 11.2405 7.65771C11.476 7.25848 11.4114 6.75049 11.0837 6.42274L10.81 6.14907C11.1498 6.13863 11.4941 6.15537 11.8413 6.19934C12.1321 6.23621 12.4249 6.14568 12.6441 5.95087C13.4934 5.19645 14.4772 4.67072 15.5682 4.38816C16.0166 4.27216 16.3298 3.86757 16.3298 3.40438V3.00223C16.5717 3.2402 16.8046 3.50303 17.0252 3.78789C17.2047 4.01969 17.4755 4.16266 17.7682 4.18014C18.9026 4.2479 19.9685 4.57165 20.9363 5.14231C21.3356 5.37771 21.8435 5.3132 22.1712 4.98552L22.445 4.71178C22.4554 5.05159 22.4387 5.39587 22.3947 5.74313C22.3578 6.03401 22.4484 6.32666 22.6432 6.54593C23.3976 7.39521 23.9233 8.379 24.2059 9.46998C24.3219 9.9184 24.7266 10.2316 25.1898 10.2316H25.5734C25.3399 10.4799 25.0839 10.7121 24.8064 10.927C24.5746 11.1065 24.4316 11.3773 24.4141 11.67C24.4022 11.8692 24.3816 12.0676 24.3534 12.2643H20.2205C20.3333 11.9462 20.3953 11.6042 20.3953 11.248C20.3953 9.56667 19.0274 8.19883 17.3462 8.19883C15.6649 8.19883 14.297 9.56667 14.297 11.248C14.297 11.6042 14.359 11.9462 14.4718 12.2643H9.11947C9.35303 12.0159 9.60855 11.7837 9.88602 11.5688ZM18.3625 11.2479C18.3625 11.8083 17.9066 12.2643 17.3462 12.2643C16.7857 12.2643 16.3298 11.8083 16.3298 11.2479C16.3298 10.6875 16.7857 10.2315 17.3462 10.2315C17.9066 10.2315 18.3625 10.6875 18.3625 11.2479ZM6.16602 32.6595H4.13326V18.3625H6.16602C6.16602 18.3556 6.16608 28.3977 6.16602 32.6595ZM8.19877 28.0415V22.9129L14.6095 25.4772L8.19877 28.0415ZM26.4935 28.0415L20.0828 25.4772L26.4935 22.9129V28.0415ZM26.4935 20.7236L17.3462 24.3825L8.19877 20.7236V18.3625H26.4935V20.7236ZM30.559 32.6595H28.5263C28.5263 30.8567 28.5263 20.5366 28.5263 18.3625H30.559V32.6595ZM32.6596 16.3298H2.03275V14.297H32.6596V16.3298Z" fill="white"/>
</svg>
